# xmcd
#
# Track frame offsets:
#	150
#	11416
#	20926
#	37492
#	60364
#	85121
#	101002
#	113122
#	125009
#	139090
#	152565
#	161412
#	171286
#	189730
#	197511
#	211099
#	220997
#	233325
#	241573
#
# Disc length: 3337 seconds
#
# Revision: 2
# Processed by: cddbd v1.5.2PL0 Copyright (c) Steve Scherf et al.
# Submitted via: audiograbber 1.83.01
#
DISCID=fb0d0713
DTITLE=Sampler - European Skinhead Army
DYEAR=1900
DGENRE=
TTITLE0=Faustrecht - Anti-SHARP
TTITLE1=Faustrecht - Protest
TTITLE2=Faustrecht - Ungebrochener Stolz
TTITLE3=Varder - Immortality
TTITLE4=Varder - Rovhaugane
TTITLE5=Norhat - End of my Race
TTITLE6=Norhat - 100% pissed off
TTITLE7=Norhat - White Pride
TTITLE8=Norhat - Northmen
TTITLE9=Pig Killer - Keepin´ my way
TTITLE10=Pig Killer - Lover
TTITLE11=Pig Killer - victory of death
TTITLE12=Pig Killer - Heroes
TTITLE13=Pig Killer - Bang! You´re dead!
TTITLE14=Pig Killer - Stream of hades
TTITLE15=B-6-B - Gävle spelar bara jazz
TTITLE16=B-6-B - Patriot
TTITLE17=B-6-B - Regler
TTITLE18=B-6-B - Revolt
EXTD=
EXTT0=
EXTT1=
EXTT2=
EXTT3=
EXTT4=
EXTT5=
EXTT6=
EXTT7=
EXTT8=
EXTT9=
EXTT10=
EXTT11=
EXTT12=
EXTT13=
EXTT14=
EXTT15=
EXTT16=
EXTT17=
EXTT18=
PLAYORDER=
